<svg width="44" height="44" viewBox="0 0 44 44" fill="none" xmlns="http://www.w3.org/2000/svg">
<g clip-path="url(#clip0_2_122)">
<path d="M12.685 30.29C12.105 30.29 11.655 30.14 11.355 29.83C11.055 29.52 10.895 29.07 10.895 28.48V15.52C10.895 14.92 11.045 14.47 11.355 14.17C11.665 13.87 12.105 13.71 12.685 13.71H31.315C31.885 13.71 32.325 13.86 32.635 14.17C32.945 14.47 33.095 14.93 33.095 15.52V28.48C33.095 29.08 32.945 29.53 32.635 29.83C32.325 30.13 31.885 30.29 31.315 30.29H12.685ZM12.655 31.76H31.345C32.415 31.76 33.225 31.49 33.765 30.95C34.305 30.41 34.575 29.62 34.575 28.56V15.44C34.575 14.38 34.305 13.58 33.765 13.05C33.225 12.52 32.415 12.24 31.345 12.24H12.655C11.585 12.24 10.785 12.51 10.235 13.05C9.69505 13.59 9.42505 14.39 9.42505 15.45V28.57C9.42505 29.63 9.69505 30.43 10.235 30.96C10.775 31.49 11.585 31.76 12.655 31.76ZM17.345 16.63H26.655C26.845 16.63 26.995 16.57 27.115 16.45C27.2351 16.33 27.295 16.18 27.295 15.99C27.295 15.8 27.2351 15.66 27.115 15.53C26.995 15.41 26.845 15.35 26.655 15.35H17.345C17.165 15.35 17.015 15.41 16.895 15.53C16.775 15.65 16.715 15.8 16.715 15.99C16.715 16.18 16.775 16.32 16.895 16.45C17.015 16.57 17.165 16.63 17.345 16.63Z" fill="#007AFF"/>
</g>
<defs>
<clipPath id="clip0_2_122">
<rect width="25.15" height="19.52" fill="white" transform="translate(9.42505 12.24)"/>
</clipPath>
</defs>
</svg>
